<svg xmlns="http://www.w3.org/2000/svg" viewBox="0 0 512 512" role="img" aria-labelledby="t d">
  <title id="t">Peggy Logo 02 Ribbon</title>
  <desc id="d">Soft badge with ribbon heart and letter P.</desc>
  <defs>
    <linearGradient id="g2" x1="0" y1="0" x2="1" y2="1">
      <stop offset="0%" stop-color="#ff8fbf"/>
      <stop offset="100%" stop-color="#ffc2db"/>
    </linearGradient>
  </defs>
  <rect width="512" height="512" rx="118" fill="#fff4f8"/>
  <rect x="44" y="44" width="424" height="424" rx="96" fill="url(#g2)"/>
  <path d="M182 343V171h99c50 0 84 29 84 73s-34 72-84 72h-55" fill="none" stroke="#4f2754" stroke-width="30" stroke-linecap="round" stroke-linejoin="round"/>
  <path d="M320 286c0-20 15-35 34-35 13 0 24 7 30 18 6-11 17-18 30-18 19 0 34 15 34 35 0 30-31 49-64 75-33-26-64-45-64-75z" fill="#7a2f75"/>
</svg>
